<?xml version="1.0" standalone="no"?>
<!DOCTYPE svg PUBLIC "-//W3C//DTD SVG 20010904//EN"
 "http://www.w3.org/TR/2001/REC-SVG-20010904/DTD/svg10.dtd">
<svg version="1.0" xmlns="http://www.w3.org/2000/svg"
 width="400.000000pt" height="400.000000pt" viewBox="0 0 400.000000 400.000000"
 preserveAspectRatio="xMidYMid meet">
<metadata>
Created by potrace 1.11, written by Peter Selinger 2001-2013
</metadata>
<g transform="translate(0.000000,400.000000) scale(0.100000,-0.100000)"
fill="#000000" stroke="none">
<path d="M0 2000 l0 -2000 715 0 c431 0 715 4 715 9 0 5 -77 83 -170 173 -122
117 -188 188 -232 253 -34 50 -71 99 -81 110 -42 43 -79 142 -84 223 -5 68 -2
90 21 158 16 47 41 95 61 119 19 22 54 64 79 94 59 71 142 132 244 182 70 35
111 46 270 76 103 18 251 43 330 53 79 11 151 24 160 29 15 7 138 15 462 27
116 4 222 -8 316 -37 56 -17 68 -27 123 -90 101 -120 153 -237 165 -369 6 -70
-13 -238 -37 -335 -24 -93 -98 -277 -171 -423 -37 -72 -71 -142 -76 -155 -6
-12 -19 -35 -29 -52 -11 -17 -20 -33 -20 -37 -1 -5 278 -8 619 -8 l620 0 0
2000 0 2000 -835 0 -835 0 0 -25 c0 -52 45 -197 89 -284 61 -122 175 -298 311
-481 104 -141 233 -337 261 -400 40 -89 69 -206 69 -281 0 -74 -32 -195 -67
-251 -13 -21 -23 -40 -23 -43 0 -27 -159 -177 -225 -212 -144 -76 -227 -87
-607 -80 -283 5 -385 12 -565 37 -40 5 -108 15 -150 21 -224 31 -368 83 -434
156 -45 50 -96 146 -125 233 -34 105 -35 189 -4 315 22 87 94 284 130 356 26
49 192 281 255 354 141 163 295 457 295 561 l0 24 -770 0 -770 0 0 -2000z"/>
</g>
</svg>
